<svg xmlns="http://www.w3.org/2000/svg" viewBox="0 0 173.56 53.46" class=""><defs></defs><g id="Layer_2" data-name="Layer 2"><g id="Layer_1-2" data-name="Layer 1"><path d="M0 1.77v-1A.67.67 0 01.73 0h5.88a4.2 4.2 0 013.3 1.63A.64.64 0 0110 2c0 .3-.26.5-.66.5H.73A.66.66 0 010 1.77zm0 3.5V3.9a.67.67 0 01.73-.73h9.08a.66.66 0 01.73.73v1.37a.67.67 0 01-.73.73H6.67a.67.67 0 01-.73-.74c0-.47-.23-.74-.67-.74s-.66.27-.66.74a.67.67 0 01-.74.74H.73A.67.67 0 010 5.27zm0 3.51V7.41a.67.67 0 01.73-.74h3.14a.67.67 0 01.74.74v1.37a.67.67 0 01-.74.73H.73A.67.67 0 010 8.78zm0 3.5v-1.37a.66.66 0 01.73-.73h3.88v.06a.62.62 0 00.66.64.64.64 0 00.67-.64v-.06h3.87c.47 0 .73.2.73.5a4.19 4.19 0 01-.4 1.83.79.79 0 01-.83.5H.73a.66.66 0 01-.73-.73zm0 3.5v-1.37a.67.67 0 01.73-.73h7c.44 0 .7.23.7.47s-.13.33-.4.43a3.43 3.43 0 01-1.43.3H5.34a.67.67 0 00-.73.74v.16a.67.67 0 01-.74.74H.73a.67.67 0 01-.73-.74zm0 3.51v-1.37a.67.67 0 01.73-.74h3.14a.67.67 0 01.74.74v1.37a.67.67 0 01-.74.73H.73a.67.67 0 01-.73-.73zm0 3.5v-1.37a.66.66 0 01.73-.73h3.14a.67.67 0 01.74.73v1.37a.67.67 0 01-.74.73H.73a.66.66 0 01-.73-.73zM0 26v-1a.67.67 0 01.73-.74h3.14a.67.67 0 01.74.74v1a.67.67 0 01-.74.73H.73A.66.66 0 010 26zM5.94 8.78V7.41a.67.67 0 01.73-.74h3.14a.67.67 0 01.73.74v1.37a.66.66 0 01-.73.73H6.67a.67.67 0 01-.73-.73zM13.21 1.77v-1A.67.67 0 0114 0h3.13a.67.67 0 01.74.73v1a.67.67 0 01-.74.73H14a.67.67 0 01-.79-.69zm0 3.5V3.9a.67.67 0 01.79-.73h3.13a.67.67 0 01.74.73v1.37a.67.67 0 01-.74.74H14a.67.67 0 01-.79-.74zm0 3.51V7.41a.67.67 0 01.79-.74h3.13a.67.67 0 01.74.74v1.37a.67.67 0 01-.74.73H14a.67.67 0 01-.79-.73zm0 3.5v-1.37a.67.67 0 01.74-.73h3.13a.67.67 0 01.74.73v1.37a.67.67 0 01-.74.73H14a.67.67 0 01-.79-.73zm0 3.5v-1.37a.67.67 0 01.74-.73h3.13a.67.67 0 01.74.73v1.37a.67.67 0 01-.74.74H14a.67.67 0 01-.79-.74zm0 3.51v-1.37a.67.67 0 01.74-.74h3.13a.67.67 0 01.74.74v1.37a.67.67 0 01-.74.73H14a.67.67 0 01-.79-.73zm0 3.57v-1.44a.67.67 0 01.74-.73h3.13a.67.67 0 01.74.73c0 .46.23.73.67.73s.66-.27.66-.73a.67.67 0 01.74-.73H23a.67.67 0 01.74.73v1.1a2.07 2.07 0 010 .5c0 .34-.33.5-.76.5H14a.71.71 0 01-.79-.66zm1.34 1.33h7.87c.57 0 .87.4.5.87a3.77 3.77 0 01-3.1 1.63h-2.67a3.77 3.77 0 01-3.1-1.63c-.37-.47-.05-.87.5-.87zm4.6-22.42v-1a.67.67 0 01.74-.77H23a.67.67 0 01.74.73v1a.67.67 0 01-.74.77h-3.11a.67.67 0 01-.74-.73zm0 3.5V3.9a.67.67 0 01.74-.73H23a.67.67 0 01.74.73v1.37A.67.67 0 0123 6h-3.11a.67.67 0 01-.74-.73zm0 3.51V7.41a.67.67 0 01.74-.74H23a.67.67 0 01.74.74v1.37a.67.67 0 01-.74.73h-3.11a.67.67 0 01-.74-.73zm0 3.5v-1.37a.67.67 0 01.74-.73H23a.67.67 0 01.74.73v1.37A.67.67 0 0123 13h-3.11a.67.67 0 01-.74-.72zm0 3.5v-1.37a.67.67 0 01.74-.73H23a.67.67 0 01.74.73v1.37a.67.67 0 01-.74.74h-3.11a.67.67 0 01-.74-.74zm0 3.51v-1.37a.67.67 0 01.74-.74H23a.67.67 0 01.74.74v1.37A.67.67 0 0123 20h-3.11a.67.67 0 01-.74-.71zM26.63 1.77v-1a.66.66 0 01.73-.77h5.91a3.73 3.73 0 013.07 1.63c.36.47.06.87-.5.87h-8.48a.66.66 0 01-.73-.73zm.73 1.4h9a.72.72 0 01.8.67v1.43a.67.67 0 01-.73.74H33.3a.67.67 0 01-.73-.74c0-.47-.24-.74-.67-.74s-.67.27-.67.74a.67.67 0 01-.73.73h-3.14a.67.67 0 01-.73-.74V3.9a.66.66 0 01.73-.73zm-.73 5.61V7.41a.67.67 0 01.73-.74h3.14a.67.67 0 01.73.74v1.37a.67.67 0 01-.73.73h-3.14a.66.66 0 01-.73-.73zm0 3.5v-1.37a.66.66 0 01.73-.73h3.14c.46 0 .73.13.73.33s.24.33.67.33.67-.13.67-.33.26-.33.73-.33h3c.5 0 .8.3.66.8a2.75 2.75 0 01-1.46 1.87 1.74 1.74 0 01-.9.16h-7.24a.66.66 0 01-.73-.73zm0 3.5v-1.37a.66.66 0 01.73-.73h8.18a1 1 0 01.9.37 3 3 0 01.66 1.7c.1.5-.23.77-.7.77h-3.1c-.47 0-.73-.24-.73-.6s-.24-.57-.67-.57-.67.2-.67.57-.27.6-.73.6h-3.14a.67.67 0 01-.73-.74zm0 3.51v-1.37a.67.67 0 01.73-.74h3.14a.67.67 0 01.73.74v1.37a.67.67 0 01-.73.73h-3.14a.66.66 0 01-.73-.73zm0 3.5v-1.37a.66.66 0 01.73-.73h3.14a.66.66 0 01.73.73.67.67 0 101.34 0 .66.66 0 01.73-.73h3.14a.66.66 0 01.73.73v1.1a2.74 2.74 0 010 .5c0 .34-.34.5-.77.5h-9a.66.66 0 01-.77-.73zm0 3.17v-1a.67.67 0 01.73-.74h8.48c.56 0 .86.4.5.87a3.73 3.73 0 01-3.07 1.63h-5.91a.66.66 0 01-.73-.72zm5.94-17.18V7.41a.67.67 0 01.73-.74h3.14a.67.67 0 01.73.74v1.37a.67.67 0 01-.73.73H33.3a.66.66 0 01-.73-.73zm0 10.51v-1.37a.67.67 0 01.73-.74h3.14a.67.67 0 01.73.74v1.37a.67.67 0 01-.73.73H33.3a.66.66 0 01-.73-.73zM40.14 1.77v-1a.67.67 0 01.73-.77h3.07a.67.67 0 01.74.73v1a.67.67 0 01-.74.73h-3.07a.66.66 0 01-.73-.69zm0 3.5V3.9a.67.67 0 01.73-.73h3.07a.67.67 0 01.74.73v1.37a.67.67 0 01-.74.74h-3.07a.67.67 0 01-.73-.74zm0 3.51V7.41a.67.67 0 01.73-.74h3.07a.67.67 0 01.74.74v1.37a.67.67 0 01-.74.73h-3.07a.67.67 0 01-.73-.73zm0 3.5v-1.37a.66.66 0 01.73-.73h3.07a.67.67 0 01.74.73v1.37a.67.67 0 01-.74.73h-3.07a.66.66 0 01-.73-.73zm0 3.5v-1.37a.67.67 0 01.73-.73h3.07a.67.67 0 01.74.73v1.37a.67.67 0 01-.74.74h-3.07a.67.67 0 01-.73-.74zm0 3.51v-1.37a.67.67 0 01.73-.74h3.07a.67.67 0 01.74.74v1.37a.67.67 0 01-.74.73h-3.07a.67.67 0 01-.73-.73zm0 3.5v-1.37a.66.66 0 01.73-.73h3.07a.67.67 0 01.74.73v.07a.66.66 0 00.73.73h.94c.46 0 .73.24.73.64a.65.65 0 01-.73.66h-5.48a.66.66 0 01-.73-.73zm0 3.17v-1a.67.67 0 01.73-.74h5.48a.67.67 0 01.73.74v1a.66.66 0 01-.73.73h-5.48a.66.66 0 01-.73-.69zM49.68 1.77v-1a.67.67 0 01.74-.77h3.13a.67.67 0 01.74.73v1a.67.67 0 01-.74.73h-3.13a.67.67 0 01-.74-.69zm0 3.5V3.9a.67.67 0 01.74-.73h3.13a.67.67 0 01.74.73v1.37a.67.67 0 01-.74.74h-3.13a.67.67 0 01-.74-.74zm0 3.51V7.41a.67.67 0 01.74-.74h3.13a.67.67 0 01.74.74v1.37a.67.67 0 01-.74.73h-3.13a.67.67 0 01-.74-.73zm0 3.5v-1.37a.67.67 0 01.74-.73h3.13a.67.67 0 01.74.73v1.37a.67.67 0 01-.74.73h-3.13a.67.67 0 01-.74-.73zm0 3.5v-1.37a.67.67 0 01.74-.73h3.13a.67.67 0 01.74.73v1.37a.67.67 0 01-.74.74h-3.13a.67.67 0 01-.74-.74zm0 3.51v-1.37a.67.67 0 01.74-.74h3.13a.67.67 0 01.74.74v1.37a.67.67 0 01-.74.73h-3.13a.67.67 0 01-.74-.73zm0 3.5v-1.37a.67.67 0 01.74-.73h3.13a.67.67 0 01.74.73v1.37a.67.67 0 01-.74.73h-3.13a.67.67 0 01-.74-.73zm0 3.17v-1a.67.67 0 01.74-.74h3.13a.67.67 0 01.74.74v1a.67.67 0 01-.74.73h-3.13a.67.67 0 01-.74-.69zM56.79 5.27v-1.1a2.8 2.8 0 010-.5c0-.33.34-.5.77-.5h8.94a.72.72 0 01.8.67v1.43a.67.67 0 01-.7.73h-3.14a.67.67 0 01-.73-.74c0-.47-.23-.74-.67-.74s-.67.27-.67.74a.67.67 0 01-.73.74h-3.14a.67.67 0 01-.73-.73zm0 3.51V7.41a.67.67 0 01.73-.74h3.14a.67.67 0 01.73.74v1.37a.66.66 0 01-.73.73h-3.14a.67.67 0 01-.73-.73zm0 3.5v-1.37a.66.66 0 01.73-.73h3.14a.66.66 0 01.73.73v1.37a.66.66 0 01-.73.73h-3.14a.66.66 0 01-.73-.73zm0 3.5v-1.37a.67.67 0 01.73-.73h3.14a.66.66 0 01.73.73v1.37a.67.67 0 01-.73.74h-3.14a.67.67 0 01-.73-.74zm0 3.51v-1.37a.67.67 0 01.73-.74h3.14a.67.67 0 01.73.74v1.37a.66.66 0 01-.73.73h-3.14a.67.67 0 01-.73-.73zm0 3.57v-1.44a.66.66 0 01.73-.73h3.14a.66.66 0 01.73.73.64.64 0 00.67.73c.44 0 .67-.27.67-.73a.66.66 0 01.73-.73h3.14a.66.66 0 01.73.73v1.1a2.74 2.74 0 010 .5c0 .34-.33.5-.77.5h-8.97a.7.7 0 01-.8-.66zm.83-21.23A3.79 3.79 0 0160.73 0h2.67a3.78 3.78 0 013.1 1.63c.37.47.07.87-.5.87h-7.88c-.56 0-.86-.4-.5-.87zm.5 22.56H66c.57 0 .87.4.5.87a3.78 3.78 0 01-3.1 1.63h-2.67a3.79 3.79 0 01-3.11-1.63c-.36-.47-.06-.87.5-.87zm4.61-16.08v-.7a.67.67 0 01.73-.74h3.14a.67.67 0 01.73.74v.7a.66.66 0 01-.73.73h-3.14a.67.67 0 01-.73-.73zm0 7.71c0-.24 0-.71.73-.71h3.14c.7 0 .73.47.73.71s0 .7-.73.7h-3.14c-.7 0-.73-.47-.73-.7zm0 3.47v-1.37a.67.67 0 01.73-.74h3.14a.67.67 0 01.73.74v1.37a.66.66 0 01-.73.73h-3.14a.67.67 0 01-.73-.73zM96.92 1.77v-1a.67.67 0 01.73-.77h5.88a3.77 3.77 0 013.1 1.63c.37.47.07.87-.5.87h-8.48a.66.66 0 01-.73-.73zm.73 1.4h9a.72.72 0 01.8.67v1.43a.67.67 0 01-.73.74h-3.14a.67.67 0 01-.73-.74c0-.47-.23-.74-.67-.74s-.66.27-.66.74a.67.67 0 01-.74.74h-3.13a.67.67 0 01-.73-.74V3.9a.67.67 0 01.73-.73zm-.73 5.61V7.41a.67.67 0 01.73-.74h3.14a.67.67 0 01.74.74v1.37a.67.67 0 01-.74.73h-3.14a.67.67 0 01-.73-.73zm0 3.5v-1.37a.66.66 0 01.73-.73h3.14a.67.67 0 01.74.73v1.37a.67.67 0 01-.74.73h-3.14a.66.66 0 01-.73-.73zm0 3.5v-1.37a.67.67 0 01.73-.73h3.14a.67.67 0 01.74.73v1.37a.67.67 0 01-.74.74h-3.14a.67.67 0 01-.73-.74zm0 3.51v-1.37a.67.67 0 01.73-.74h3.14a.67.67 0 01.74.74v1.37a.67.67 0 01-.74.73h-3.14a.67.67 0 01-.73-.73zm.73 1.4h3.14a.67.67 0 01.74.73c0 .46.23.73.66.73s.67-.27.67-.73a.66.66 0 01.73-.73h3.14a.66.66 0 01.73.73v1.1a2.74 2.74 0 010 .5c0 .34-.33.5-.77.5h-9a.66.66 0 01-.73-.73v-1.37a.66.66 0 01.69-.73zM96.92 26v-1a.67.67 0 01.73-.74h8.48c.57 0 .87.4.5.87a3.77 3.77 0 01-3.1 1.63h-5.88a.66.66 0 01-.73-.76zm5.94-17.18V7.41a.67.67 0 01.73-.74h3.14a.67.67 0 01.73.74v1.37a.66.66 0 01-.73.73h-3.14a.67.67 0 01-.73-.73zm0 3.5v-1.41a.66.66 0 01.73-.73h3.14a.66.66 0 01.73.73v1.37a.66.66 0 01-.73.73h-3.14a.66.66 0 01-.73-.73zm0 3.5v-1.41a.67.67 0 01.73-.73h3.14a.66.66 0 01.73.73v1.37a.67.67 0 01-.73.74h-3.14a.67.67 0 01-.73-.74zm0 3.51v-1.41a.67.67 0 01.73-.74h3.14a.67.67 0 01.73.74v1.37a.66.66 0 01-.73.73h-3.14a.67.67 0 01-.73-.73zM110.2 5.27v-1.1a2.8 2.8 0 010-.5c0-.33.34-.5.77-.5h8.91a.72.72 0 01.8.67v1.43A.67.67 0 01120 6h-3.14a.67.67 0 01-.73-.74c0-.47-.24-.74-.64-.74a.65.65 0 00-.66.74.67.67 0 01-.74.74h-3.14a.67.67 0 01-.75-.73zm0 3.51V7.41a.67.67 0 01.73-.74h3.14a.67.67 0 01.74.74v1.37a.67.67 0 01-.74.73h-3.14a.67.67 0 01-.73-.73zm0 3.5v-1.37a.66.66 0 01.73-.73h3.14a.67.67 0 01.74.73v1.37a.67.67 0 01-.74.73h-3.14a.66.66 0 01-.73-.73zm0 3.5v-1.37a.67.67 0 01.73-.73h3.14a.67.67 0 01.74.73v1.37a.67.67 0 01-.74.74h-3.14a.67.67 0 01-.73-.74zm0 3.51v-1.37a.67.67 0 01.73-.74h3.14a.67.67 0 01.74.74v1.37a.67.67 0 01-.74.73h-3.14a.67.67 0 01-.73-.73zm0 3.57v-1.44a.66.66 0 01.73-.73h3.14a.67.67 0 01.74.73c0 .46.23.73.66.73s.64-.27.64-.73a.66.66 0 01.73-.73H120a.66.66 0 01.73.73v1.1a2.74 2.74 0 010 .5c0 .34-.34.5-.77.5H111a.72.72 0 01-.8-.66zm1.34 1.33h7.84c.56 0 .86.4.5.87a3.72 3.72 0 01-3.07 1.63h-2.71a3.71 3.71 0 01-3.1-1.63c-.33-.47 0-.87.54-.87zM111 1.63A3.71 3.71 0 01114.1 0h2.71a3.72 3.72 0 013.07 1.63c.36.47.06.87-.5.87h-7.84c-.54 0-.87-.4-.54-.87zm5.07 7.15V7.41a.67.67 0 01.73-.74h3.2a.67.67 0 01.73.74v1.37a.67.67 0 01-.73.73h-3.14a.66.66 0 01-.75-.73zm0 3.5v-1.37a.66.66 0 01.73-.73h3.2a.66.66 0 01.73.73v1.37a.66.66 0 01-.73.72h-3.14a.66.66 0 01-.75-.72zm0 3.5v-1.37a.66.66 0 01.73-.73h3.2a.67.67 0 01.73.73v1.37a.67.67 0 01-.73.74h-3.14a.67.67 0 01-.75-.74zm0 3.51v-1.37a.67.67 0 01.73-.74h3.2a.67.67 0 01.73.74v1.37a.67.67 0 01-.73.71h-3.14a.66.66 0 01-.75-.71zM123.35 1.77v-1a.67.67 0 01.73-.74h4.84a.75.75 0 01.77.7l.1 1a.66.66 0 01-.7.76h-5a.66.66 0 01-.74-.72zm0 3.5V3.9a.66.66 0 01.73-.73h5.14a.71.71 0 01.77.7l.1 1.37a.66.66 0 01-.7.77h-5.31a.67.67 0 01-.73-.74zm4.37 3.54l-.17-2.1v2.07a.67.67 0 01-.73.73h-2.74a.66.66 0 01-.73-.73V7.41a.67.67 0 01.73-.74h5.44a.75.75 0 01.77.7l.13 1.37a.65.65 0 01-.7.77h-1.23a.74.74 0 01-.77-.7zm-.17 2.1v1.37a.66.66 0 01-.73.73h-2.74a.66.66 0 01-.73-.73v-1.37a.66.66 0 01.73-.73h2.74a.66.66 0 01.73.73zm0 3.5v1.37a.67.67 0 01-.73.74h-2.74a.67.67 0 01-.73-.74v-1.37a.66.66 0 01.73-.73h2.74a.67.67 0 01.73.73zm0 3.51v1.37a.67.67 0 01-.73.73h-2.74a.66.66 0 01-.73-.73v-1.37a.67.67 0 01.73-.74h2.74a.67.67 0 01.73.74zm0 3.5v1.37a.66.66 0 01-.73.73h-2.74a.66.66 0 01-.73-.73v-1.37a.66.66 0 01.73-.73h2.74a.66.66 0 01.73.73zm0 3.51v1a.66.66 0 01-.73.73h-2.74a.66.66 0 01-.73-.73v-1a.67.67 0 01.73-.74h2.74a.67.67 0 01.73.74zm.45-12.62l-.1-1.37a.65.65 0 01.7-.76h1.23a.7.7 0 01.77.7l.1 1.37a.65.65 0 01-.7.76h-1.23a.7.7 0 01-.77-.7zm5.77 2.14l-.13 1.37a.75.75 0 01-.77.7h-1c-.47 0-.77.1-.73.33s.23.33.7.33h.93a.65.65 0 01.7.77l-.13 1.37a.75.75 0 01-.77.7h-.33c-.5 0-.84 0-.8.13s-.17.17-.44.17-.47 0-.43-.17-.3-.13-.77-.13h-.4a.75.75 0 01-.77-.7l-.11-1.32a.65.65 0 01.7-.77h.93c.44 0 .7-.13.74-.33s-.3-.33-.77-.33h-1a.75.75 0 01-.77-.7l-.13-1.37a.65.65 0 01.7-.77h1.23a.7.7 0 01.77.7v.13s.17-.06.17-.13a.72.72 0 01.77-.7h1.23a.65.65 0 01.7.72zm-.6 7l-.13 1.36a.74.74 0 01-.77.7h-2.57a.74.74 0 01-.77-.7l-.13-1.36a.65.65 0 01.7-.77h3a.65.65 0 01.69.78zm-.3 3.5l-.1 1a.74.74 0 01-.77.7h-2a.74.74 0 01-.77-.7l-.1-1a.65.65 0 01.7-.77h2.37a.65.65 0 01.69.82zm1.2-14l-.1 1.37a.7.7 0 01-.77.7H132a.65.65 0 01-.7-.76l.1-1.37a.7.7 0 01.77-.7h1.23a.65.65 0 01.69.75zm4.57-3.53v1.36a.66.66 0 01-.73.73h-2.74a.67.67 0 01-.73-.73V6.71l-.17 2.1a.72.72 0 01-.77.7h-1.23a.65.65 0 01-.7-.77l.13-1.37a.75.75 0 01.77-.7h5.44a.67.67 0 01.75.74zm0-3.51v1.36a.67.67 0 01-.73.74h-5.31a.66.66 0 01-.7-.77l.1-1.37a.71.71 0 01.77-.7h5.14a.66.66 0 01.75.73zm0-3.13v1a.66.66 0 01-.73.73h-5a.66.66 0 01-.7-.76l.1-1a.75.75 0 01.77-.7h4.84a.67.67 0 01.74.72zm0 10.14v1.37a.66.66 0 01-.73.73h-2.74a.66.66 0 01-.73-.73v-1.38a.66.66 0 01.73-.73h2.74a.66.66 0 01.75.73zm0 3.5v1.37a.67.67 0 01-.73.74h-2.74a.67.67 0 01-.73-.74v-1.38a.67.67 0 01.73-.73h2.74a.66.66 0 01.75.73zm0 3.51v1.37a.66.66 0 01-.73.73h-2.74a.67.67 0 01-.73-.73v-1.38a.67.67 0 01.73-.74h2.74a.65.65 0 01.75.74zm0 3.5v1.37a.66.66 0 01-.73.73h-2.74a.66.66 0 01-.73-.73v-1.38a.66.66 0 01.73-.73h2.74a.66.66 0 01.75.73zm0 3.51v1a.66.66 0 01-.73.73h-2.74a.66.66 0 01-.73-.73v-1a.67.67 0 01.73-.74h2.74a.67.67 0 01.75.73zM141.3 25.93l.1-1a.74.74 0 01.77-.7H145a.67.67 0 01.7.77l-.07 1a.69.69 0 01-.76.7H142a.65.65 0 01-.7-.77zm.3-3.17l.13-1.37a.74.74 0 01.77-.7h9a.74.74 0 01.77.7l.13 1.37a.65.65 0 01-.7.76h-2.77c-.47 0-.63-.26-.77-.7l-.06-.23c-.24-.83-2-.83-2.21 0l-.06.23c-.14.44-.3.7-.77.7h-2.76a.65.65 0 01-.7-.76zm.3-3.51l.13-1.37a.73.73 0 01.77-.7h3.4v.1a.81.81 0 101.61 0v-.1h3.4a.75.75 0 01.77.7l.13 1.37a.65.65 0 01-.7.77h-8.81a.65.65 0 01-.7-.77zm.33-3.5l.14-1.37a.73.73 0 01.76-.7h2.57a.65.65 0 01.7.77l-.1 1.37a.67.67 0 01-.73.7h-2.64a.66.66 0 01-.7-.77zm.34-3.5l.13-1.37a.74.74 0 01.77-.7h2.47a.66.66 0 01.7.76l-.1 1.37a.68.68 0 01-.74.7h-2.53a.65.65 0 01-.7-.76zm.33-3.51l.1-1.37a.69.69 0 01.77-.7h2.4a.65.65 0 01.7.77l-.1 1.37a.67.67 0 01-.73.7h-2.44a.65.65 0 01-.7-.77zm.3-3.5l.13-1.37a.75.75 0 01.77-.7h5.81a.73.73 0 01.76.7l.14 1.37a.66.66 0 01-.7.77h-6.21a.65.65 0 01-.7-.77zm.33-3.5l.1-1a.75.75 0 01.77-.7h5.21a.73.73 0 01.76.7l.11 1a.66.66 0 01-.71.76h-5.53a.66.66 0 01-.71-.76zm4.31 4.93h2.37a.75.75 0 01.77.7l.13 1.37a.65.65 0 01-.7.77H148a.67.67 0 01-.73-.7l-.1-1.37a.65.65 0 01.67-.77zm.23 3.51h2.47a.74.74 0 01.77.7l.13 1.37a.65.65 0 01-.7.76h-2.53a.68.68 0 01-.74-.7l-.1-1.37a.65.65 0 01.7-.76zm.24 3.5h2.57a.73.73 0 01.76.7l.14 1.37a.66.66 0 01-.7.77h-2.64a.67.67 0 01-.73-.7l-.11-1.37a.66.66 0 01.71-.77zm.69 10.51h2.8a.74.74 0 01.77.7l.1 1a.65.65 0 01-.7.76h-2.84a.69.69 0 01-.76-.7l-.07-1a.67.67 0 01.7-.76zM155.51 1.77v-1a.67.67 0 01.74-.73h3.13a.67.67 0 01.74.73v1a.67.67 0 01-.74.73h-3.13a.67.67 0 01-.74-.73zm0 3.5V3.9a.67.67 0 01.74-.73h3.13a.67.67 0 01.74.73v1.37a.67.67 0 01-.74.74h-3.13a.67.67 0 01-.74-.74zm0 3.51V7.41a.67.67 0 01.74-.74h3.13a.67.67 0 01.74.74v1.37a.67.67 0 01-.74.73h-3.13a.67.67 0 01-.74-.73zm0 3.5v-1.37a.67.67 0 01.74-.73h3.13a.67.67 0 01.74.73v1.37a.67.67 0 01-.74.73h-3.13a.67.67 0 01-.74-.73zm0 3.5v-1.37a.67.67 0 01.74-.73h3.13a.67.67 0 01.74.73v1.37a.67.67 0 01-.74.74h-3.13a.67.67 0 01-.74-.74zm0 3.51v-1.37a.67.67 0 01.74-.74h3.13a.67.67 0 01.74.74v1.37a.67.67 0 01-.74.73h-3.13a.67.67 0 01-.74-.73zm0 3.5v-1.37a.67.67 0 01.74-.73h3.13a.67.67 0 01.74.73v1.37a.67.67 0 01-.74.73h-3.13a.67.67 0 01-.74-.73zm0 3.17v-1a.67.67 0 01.74-.74h3.13a.67.67 0 01.74.74v1a.67.67 0 01-.74.73h-3.13a.67.67 0 01-.74-.69zM162.55 1.77v-1a.67.67 0 01.74-.73h3.5a.74.74 0 01.8.67l.17 1a.61.61 0 01-.67.8h-3.8a.67.67 0 01-.74-.74zm0 3.5V3.9a.67.67 0 01.74-.73h4a.74.74 0 01.81.67l.23 1.37a.61.61 0 01-.67.8h-4.4a.67.67 0 01-.71-.74zm4.67 7.73a.68.68 0 01-.76-.66v-.17l-.16.1a.67.67 0 01-.74.73h-2.23a.67.67 0 01-.74-.73v-1.36a.67.67 0 01.74-.73h2c.47 0 .77-.1.73-.34s-.3-.33-.73-.33h-2a.67.67 0 01-.74-.73V7.41a.67.67 0 01.74-.74h4.64a.74.74 0 01.8.67l.23 1.37a.61.61 0 01-.67.8H167c-.47 0-.73.13-.73.33s.26.34.73.34h1.54a.74.74 0 01.8.66l.23 1.37a.62.62 0 01-.67.8zm-1 1.4v1.37a.67.67 0 01-.74.74h-2.23a.67.67 0 01-.74-.74v-1.36a.67.67 0 01.74-.73h2.23a.67.67 0 01.78.73zm0 3.51v1.37a.67.67 0 01-.74.73h-2.23a.67.67 0 01-.74-.73v-1.36a.67.67 0 01.74-.74h2.23a.67.67 0 01.78.74zm0 3.5v1.37a.67.67 0 01-.74.73h-2.23a.67.67 0 01-.74-.73v-1.36a.67.67 0 01.74-.73h2.23a.67.67 0 01.78.73zm0 3.51v1a.67.67 0 01-.74.73h-2.23a.67.67 0 01-.74-.73v-1a.67.67 0 01.74-.74h2.23a.67.67 0 01.78.75zm7.3-10.52v1.37a.67.67 0 01-.73.74h-1.69c-.51 0-.77.1-.74.33s.27.33.7.33h1.77a.67.67 0 01.73.74v1.37a.66.66 0 01-.73.73h-4.4a.75.75 0 01-.81-.67l-.23-1.34a.62.62 0 01.67-.8h1.07c.46 0 .73-.13.73-.33s-.27-.33-.73-.33h-1.3a.74.74 0 01-.81-.67l-.23-1.37a.62.62 0 01.67-.8h2.33a.87.87 0 00.07.17c0-.14.27-.17.73-.17h2.24a.66.66 0 01.73.71zm0 7v1.37a.66.66 0 01-.73.73H169a.73.73 0 01-.8-.66l-.2-1.35a.62.62 0 01.67-.8h4.17a.66.66 0 01.72.73zm0 3.51v1a.66.66 0 01-.73.73h-3.27a.74.74 0 01-.8-.66l-.17-1a.61.61 0 01.67-.8h3.57a.67.67 0 01.77.75zm0-24.2v1a.66.66 0 01-.73.73h-2.24a.66.66 0 01-.73-.73v-1a.67.67 0 01.73-.73h2.24a.66.66 0 01.77.75zm0 3.17v1.39a.67.67 0 01-.73.74h-2.24a.67.67 0 01-.73-.74V3.9a.67.67 0 01.73-.73h2.24a.66.66 0 01.77.73zm0 3.51v1.39a.66.66 0 01-.73.73h-2.24a.67.67 0 01-.73-.73V7.41a.67.67 0 01.73-.74h2.24a.67.67 0 01.77.74zm0 3.5v1.37a.66.66 0 01-.73.73h-2.24a.66.66 0 01-.73-.73v-1.35a.65.65 0 01.73-.73h2.24a.66.66 0 01.77.73z" class="cls-1"></path><path d="M98.74 38v-.09l-.14-.14a.29.29 0 00-.21-.07l-.17.25v.09h-.09a.62.62 0 00-.08.35.77.77 0 01.26.6.44.44 0 00-.22.34.52.52 0 00.17.09.64.64 0 00.44.1l1.5-.05.73.09.22.26v.26c0 .22-.08.34-.23.38s-.25.11-.53.11H99.97a2.05 2.05 0 00-.41.07 1.5 1.5 0 01-.34.07.46.46 0 01-.21-.07.63.63 0 00-.21-.07h-.07l-.65.08H98l-.26-.22v-.17l-.21-.13V40a1.85 1.85 0 01-.09-.64 6.22 6.22 0 010-.68v-2.03a.49.49 0 000-.12.93.93 0 000-.24l-.05-.16V35.51a.85.85 0 01.11-.32.59.59 0 01.19-.26H98a.33.33 0 00.21.06.78.78 0 00.27-.05H99a.11.11 0 01.1 0 1.4 1.4 0 01.34.09 1.29 1.29 0 00.39.09H100l.08-.15h.18a.37.37 0 01.19.08.32.32 0 00.18.07.21.21 0 00.14-.09h.3a.4.4 0 00.13.17v.35c0 .35-.15.52-.45.52a.48.48 0 00-.19-.11.67.67 0 01-.2-.07h-.8a.49.49 0 00-.18 0 .41.41 0 01-.19 0H98.6h-.06c-.06 0-.08 0-.13.13a.33.33 0 00-.1.25.28.28 0 000 .09v.65c0 .37 0 .5.1.56h.26a.7.7 0 01.51-.17H99.49l.52-.09v.05h.17a.45.45 0 01.21.12l.18.18a.45.45 0 010 .09.64.64 0 01-.57.25.35.35 0 01-.2-.08.43.43 0 00-.21-.08.19.19 0 00-.1 0l-.13.17h-.52zM112 39l.9.31v.12h-.3l-.21.26v.3a.13.13 0 010 .06 1.52 1.52 0 01-.14.46.62.62 0 01-.25 0 1.05 1.05 0 01-.31-.34h-.08v-.6h-.09V38.8h-.09v-.28a.87.87 0 00.05-.23.44.44 0 000-.1V38l-.08-.05a4 4 0 01-.18-.47v-.6l-.09-.13H111a.38.38 0 01-.06-.22v-.18a1.91 1.91 0 000-.2c0-.14-.09-.21-.28-.22a.72.72 0 00-.13.39.38.38 0 01.08.26v.18a1.23 1.23 0 000 .17 1 1 0 000 .2V40.23a1 1 0 010 .17.46.46 0 01-.26.08.23.23 0 01-.25-.2h-.05v-.99a1 1 0 00.1-.37.13.13 0 000-.06h-.05v-.26a2 2 0 00-.1-.6 1.11 1.11 0 000-.19V36.43h-.06v-.77h.06V35v-.17a1.31 1.31 0 01.34 0h.26a1.55 1.55 0 01.33.32l.06.41v.3a.9.9 0 00.09.26h.13v.26a2.13 2.13 0 00-.09.35.89.89 0 01.43.43v.77zm.68-.25h-.12c-.07 0-.1-.16-.1-.35v-.43h.09l.13-.39V36.46l.13-.08v-.09h.11a.3.3 0 000-.1.45.45 0 000-.13.45.45 0 010-.13.5.5 0 010-.12V35.38h.09v-.09l.17-.13v-.08l.09-.14a.27.27 0 01.17-.08 3.3 3.3 0 01.35.69h-.05v.1l-.3.21v.99c0 .08-.08.13-.21.21V37 38.2h-.08a2 2 0 00-.46.52zm1 1.59v-.65a.78.78 0 010-.24 2 2 0 01.06-.47v-1.53h-.09a.5.5 0 010-.12.8.8 0 000-.18.71.71 0 00.2-.27.44.44 0 01.23-.25l.09.18a.73.73 0 01.12.49v.75a1.34 1.34 0 00.06.35 1.91 1.91 0 010 .29.87.87 0 010 .23.7.7 0 00-.06.23s0 .18.05.5a.88.88 0 010 .17v.24a1.17 1.17 0 000 .23l-.21.15a.72.72 0 01-.26 0 .24.24 0 00-.23-.13zm.22-4.31h.21a.69.69 0 01.09.22.41.41 0 000 .09.74.74 0 01-.18 0 1.19 1.19 0 00-.13-.22zM120.53 38.4v.33a1 1 0 010 .22h-.05v.12h-.12a.83.83 0 00-.25.44 1 1 0 000 .16v.16a.74.74 0 010 .18v.09l-.25.22v.08h-.09v.18h-.18l-.08.09h-.26L119 41l-.13.17h-.09a1.17 1.17 0 01-.53.08h-.07a.46.46 0 00-.17-.08 2.76 2.76 0 01-.17-.22H117.4v-.13l-.13-.08v-.09l-.21-.17-.05-.17-.21-.18V39l-.06-.17a.67.67 0 01-.07-.26v-.31l-.09-.25v-1.96h.09l.09-.09v-.08l.08-.05v-.08h.09a1.58 1.58 0 00.3-.38h.08v-.09h.39v-.09h.3l.09-.13h.16a1.4 1.4 0 01.31.1h.74a1.53 1.53 0 00.47.52v.08h.09v.09l.12.09v.08l.13.09v1.1l.09.13h.08l.09.13-.05.65a2.3 2.3 0 00.21.28zm-.47-.23a.28.28 0 01-.08-.09h-.13c-.06 0-.09-.12-.09-.26v-.08a.22.22 0 000-.16.59.59 0 000-.23V37.18h-.09v-.56h-.09v-.09l-.12-.09v-.08l-.26-.35h-.09v-.08h-.13v-.13H118.81a.94.94 0 00-.39-.13l-.13.08H118v.13a.35.35 0 01-.17.13.41.41 0 01-.09.19l-.17.11-.09.13h-.08a2.24 2.24 0 00-.08.26.86.86 0 000 .26v.3l-.18.13v.25l.13.09h.09a.21.21 0 010 .15V38l-.21.22.08.26h.08v.13a.25.25 0 00-.22.17v.26h.34a1.77 1.77 0 00.52.6v.09a.26.26 0 010 .07l.05.2h.09l.38.13c.16-.06.25-.12.26-.17l.37-.16a.39.39 0 00.23-.27.41.41 0 00.11-.32.43.43 0 000-.11v-.2a1.62 1.62 0 00.13-.56l.39.09a.59.59 0 00.1-.26zM124.65 38.3a1.29 1.29 0 00-.17-.39h-.09v-.09l-.13-.73a1.94 1.94 0 00-.09-.34l-.13-.09v-.08h-.09V36a.36.36 0 01-.09-.09H123.65v.56l.12.27a.79.79 0 01.07.3.49.49 0 010 .12h-.05V37.46l.08.39v1.29h.05a.15.15 0 010 .07 1.42 1.42 0 01-.1.53v.3a.42.42 0 01.21.34 1.11 1.11 0 01-.51.18l-.09-.05-.22-.3v-.38h.05v-.76a.44.44 0 000-.1v-.17l-.05-.3v-.31a1.23 1.23 0 01-.1-.36.25.25 0 010-.07v-.56l.05-.17h.08v-.26l-.28-.26v-.47a3.81 3.81 0 01-.1-.49.54.54 0 01.09-.28A1.2 1.2 0 00123 35a.56.56 0 00.17-.09h.23l.38.06V35.44l.09.26v.09l.22.17V36h.08v.08h.09a1.43 1.43 0 01.14.52c0 .19 0 .37.08.55l.13.05h.39l.22.3v.48h.09V38.88a.93.93 0 01-.16.18c0 .06-.14.08-.27.08v-.12a.71.71 0 00-.09-.44h-.08l-.05-.13h-.13c.32.01.25-.06.12-.15zm2.07 1.7a1.48 1.48 0 010 .23 3.4 3.4 0 01-.06.67l-.08.09h-.3s0 .05-.06.05h-.13l-.34-.26a1 1 0 00-.09-.17v-.95a.87.87 0 01.42-.09h.18v-.65l.09-.26v-1.33a.59.59 0 010-.13.79.79 0 01.06-.25.84.84 0 00.06-.26.69.69 0 000-.13 5.26 5.26 0 01-.13-1.17l.15-.08a1.41 1.41 0 01.5-.13l.09.13v.09a2.48 2.48 0 01.06.69 2.28 2.28 0 010 .3l.06.47a1.23 1.23 0 01-.07.19.61.61 0 00-.08.25.19.19 0 000 .08v.99a.41.41 0 00.07.12.38.38 0 01.06.18.29.29 0 010 .09h-.08V38.93a.17.17 0 000 .07.49.49 0 00.06.23v.26l-.13.09h-.09a.24.24 0 00-.09.16.27.27 0 00-.13.26zM132.9 39.51a1.56 1.56 0 01.34 1 .74.74 0 00-.09.18.32.32 0 01-.12.17h-.39v-.08h-.09l-.08-.13h-.09v-.09h-.18v-.17l.22-.13v-.15-.15a2.6 2.6 0 01-.39-.17.63.63 0 000-.13.76.76 0 000-.14.19.19 0 000-.12v-.08l-.21-.18V39l-.17-.13h-.09l-.26-.3a1.78 1.78 0 00-.52-.09h-.38v.09h-.08v.09h-.09l-.06.19a.54.54 0 000 .19.52.52 0 00.08.24.59.59 0 01.08.22.14.14 0 010 .06h-.08a.59.59 0 00-.09.3.45.45 0 01.22.43.33.33 0 00-.11.23.55.55 0 000 .16v.15a.25.25 0 01-.09.2h-.4v-.13h-.05v-.35h-.05a.92.92 0 01-.13-.4h.05v-.3h.05a1.86 1.86 0 00.06-.58.78.78 0 000-.19v-.18h-.05v-.26h-.09V38.21h.09l.08-.17h.05v-.17a.4.4 0 01-.2-.38.59.59 0 010-.14h-.08v-.15a.36.36 0 010-.11v-.21l.13-.09v-.26h-.05a.17.17 0 010-.08.64.64 0 010-.15.61.61 0 000-.16h-.05v-.34l-.09-.13.18-.08v-.22l.05-.08h.08a.67.67 0 00.17-.13h.66a1 1 0 01.25.1.72.72 0 00.34.1.47.47 0 00.17 0h.39A1.06 1.06 0 01132 35a1.23 1.23 0 00.3.17h.31l.25.3h.13v.09l.13.08v.13a.94.94 0 010 .3v.31a2.44 2.44 0 000 .3V37.49l-.3.22-.09.13h-.08a2.9 2.9 0 01-.39.17v.09a.21.21 0 00-.05.13s0 .06.09.3h.09l.22.26V39.13a1.21 1.21 0 01.29.38zm-.73-2.45a.22.22 0 01.13-.07s.07-.08.08-.19a.46.46 0 00.09-.34.51.51 0 00-.09-.35c0-.14-.16-.22-.37-.22h-.19a.52.52 0 00-.34-.08.89.89 0 00-.26 0h-.39a.07.07 0 01-.06 0h-.43v-.01h-.24l.06.39a.79.79 0 00-.06.28.36.36 0 000 .11h.08l.05.26a1.4 1.4 0 01.17.21.49.49 0 01-.28.13h.1v.18l-.05.21a2 2 0 01.4 0l.16.05h.18a1.09 1.09 0 00.39.15.25.25 0 00.12 0h.18v-.09l.26-.3h.14zm-.49-.4h.1v.13a.3.3 0 01-.26.18v.17h-.08V37h-.13c.01-.26.14-.34.37-.34zm.06-.25h.13v.17h-.18v-.13h.05zM139.67 38.4v.33a1 1 0 010 .22h-.05v.12h-.12a.83.83 0 00-.25.44 1 1 0 000 .16v.16a.74.74 0 010 .18h-.05v.09l-.25.22v.08h-.09v.18h-.18l-.08.09H138.17l-.13.17h-.09a1.17 1.17 0 01-.53.08h-.07a.46.46 0 00-.17-.08 2.76 2.76 0 01-.18.16H136.56v-.13l-.13-.08v-.09l-.21-.17-.05-.17-.21-.18v-.98h-.05V39l-.06-.17a.67.67 0 01-.07-.26v-.31l-.28-.26v-.31h.05V36.82h.05v-.77h.09l.09-.09v-.08l.08-.05v-.08h.09a1.58 1.58 0 00.3-.38h.08l.05-.09h.39v-.09h.08l.09-.13h.16a1.4 1.4 0 01.31.1h.74a1.53 1.53 0 00.47.52v.08h.09v.09l.12.09v.08l.13.09v.08h.05v1.02l.09.13h.08l.09.13-.05.65a2.3 2.3 0 00.45.28zm-.47-.23a.28.28 0 01-.08-.09H139c-.06 0-.09-.12-.09-.26v-.08a.22.22 0 000-.16.59.59 0 000-.23V37.18h-.09v-.26l-.05-.17v-.13h-.09v-.09l-.12-.09v-.08l-.26-.35h-.3v-.08h-.13v-.13H137.7a.94.94 0 00-.39-.13l-.13.08h-.09v.13a.35.35 0 01-.17.13.41.41 0 01-.09.19l-.17.11-.09.13h-.08a2.24 2.24 0 00-.08.26.86.86 0 00-.05.26v.3l-.18.13v.25l.13.09h.09a.21.21 0 010 .15V38l-.21.22.08.26h.13v.13a.25.25 0 00-.22.17v.26h.34a1.77 1.77 0 00.52.6v.09a.26.26 0 010 .07l.07.08h.09l.38.13c.16-.06.25-.12.26-.17l.37-.16a.39.39 0 00.23-.27.41.41 0 00.11-.32.43.43 0 000-.11v-.08a1.62 1.62 0 00.13-.56l.39.09a.59.59 0 00.13-.26zM143.4 38v-.09a.76.76 0 01-.14-.14.29.29 0 00-.21-.07l-.17.25v.09h-.09a.62.62 0 00-.08.35.77.77 0 01.26.6.44.44 0 00-.22.34.52.52 0 00.17.09.64.64 0 00.44.1l1.5-.05.73.09.22.26v.26c0 .22-.08.34-.23.38s-.25.11-.53.11H144.63a2.05 2.05 0 00-.41.07 1.5 1.5 0 01-.34.07.46.46 0 01-.21-.07.63.63 0 00-.21-.07h-.07l-.65.08h-.08l-.26-.22v-.17l-.21-.13V40a1.85 1.85 0 01-.09-.64 6.22 6.22 0 01.05-.68v-2.03h.05a.49.49 0 000-.12.93.93 0 00-.05-.24v-.73h-.05v-.05a.85.85 0 01.11-.32.59.59 0 01.19-.26h.31a.33.33 0 00.21.06.78.78 0 00.27-.05h.46a.11.11 0 01.1 0 1.4 1.4 0 01.34.09 1.29 1.29 0 00.39.09H144.69l.08-.15h.18a.37.37 0 01.19.08.32.32 0 00.18.07.21.21 0 00.14-.09h.3a.4.4 0 00.13.17v.35c0 .35-.15.52-.45.52a.48.48 0 00-.19-.11.67.67 0 01-.2-.07h-.8a.49.49 0 00-.18 0 .41.41 0 01-.19 0H143.29h-.06c-.06 0-.08 0-.13.13a.33.33 0 00-.1.25.28.28 0 000 .09v.65c0 .37 0 .5.1.56h.26a.7.7 0 01.51-.17H144.18l.52-.09v.05h.17a.45.45 0 01.21.12l.18.18a.45.45 0 01-.05.09.64.64 0 01-.52.39.35.35 0 01-.2-.08.43.43 0 00-.21-.08.19.19 0 00-.1 0L144 38h-.52zM156 35.76a.32.32 0 01-.26.26.32.32 0 01-.09.17v.69l.17.13v.07l.22.18a.35.35 0 00.24.08h.26a2.2 2.2 0 01.57.19h.09a.54.54 0 00.24-.08.72.72 0 01.27-.08h.13a2.23 2.23 0 01.48.09v.34h.18v.1l.13.08v.53a.38.38 0 01.09.39h-.09v.22a.28.28 0 000 .09.63.63 0 000 .21l.05.13v.3l-.3.21v.09h-.09v.13a.12.12 0 000 .1.3.3 0 01-.08.07H157.87v.09h-.18a.41.41 0 01-.21 0 1 1 0 01-.3 0H155.63c-.11 0-.22-.15-.31-.39v-.17l-.13-.18H155v-.09a.43.43 0 01-.06-.26v-.26h-.05v-.25a.41.41 0 010-.16.93.93 0 01.06-.29c0-.14.09-.24.1-.29a1.43 1.43 0 01.25-.08.24.24 0 00.09.08v.31h.09v.08h.13v.13h.09v.09a2.12 2.12 0 000 .38l.43.26.65-.08h.6l.22-.26a.55.55 0 00.43-.13V38.81L158 39a.42.42 0 010-.09.74.74 0 000-.12.69.69 0 00-.06-.21 1 1 0 01-.08-.2l-.12-.09h-.26v-.05l-.61.05v-.05l-.43.05h-.09l-.3-.05V38h-.38l-.26-.08-.09-.13h-.08l-.09-.26a3.52 3.52 0 01-.37-.33l-.06-.3v-.61h.05V36.12l.17-.13v-.08l.09-.05v-.43a.58.58 0 00.17-.11.33.33 0 01.19-.06h.31a.58.58 0 00.19 0h.3v-.08l.18-.05h.1a3 3 0 01.46.19.08.08 0 00.07 0h.26a1.12 1.12 0 01.29.17 1.52 1.52 0 01.28.22v.09h.09v.08l.17.13v.61a.19.19 0 010 .08.67.67 0 01-.07.28c0 .14-.11.22-.16.24h-.21c-.06 0-.13-.08-.22-.22v-.3l-.05-.34-.26-.22a.92.92 0 01-.34 0l-.13-.18c-.05-.06-.23-.1-.53-.1a.6.6 0 00-.27.07.84.84 0 01.15-.17zm.38.43h.13l.05.22h-.18l-.09-.16zm.13 4.26a.45.45 0 000-.18h-.09a.16.16 0 000 .09zm.52-3.53h.26v.26h-.22v-.09zm.47 3.35h.05a.55.55 0 01-.05.17.4.4 0 01-.21-.08v-.14zM165.06 35.85l-.3.17h-.18-.67a.63.63 0 01-.18.21v1.25a.1.1 0 01.06.09h-.06v1.03a.11.11 0 00.05.09v1.47a.51.51 0 010 .22.42.42 0 01-.07.29c0 .16-.18.23-.43.22h-.08a.44.44 0 01-.39-.19 1.16 1.16 0 01-.11-.61.78.78 0 01.13-.39.83.83 0 00.12-.36v-.24h-.09V39h-.05a.54.54 0 01.08-.15.43.43 0 00.07-.22.29.29 0 000-.09l-.08-.05a.62.62 0 01-.11-.32.52.52 0 010-.11v-.13h.05v-.39a1.76 1.76 0 00.06-.46 1 1 0 000-.24.08.08 0 01.05-.08.13.13 0 000-.06c0-.45-.19-.68-.57-.68H161.92h-.09l-.64-.09a1 1 0 01-.13-.34v-.13h.05l.21-.26a2 2 0 00.6-.17H162.49a.93.93 0 01.29.07l.18.07h1.58a1.58 1.58 0 01.42.09c.18.05.29.11.32.18V35.73h-.05v.09zM101.29 51.58l-.17.43v.35h-.08v.09l-.13.08-.22.3-.38.13h-.09v.08H99.05v-.09H98.45v-.05h-.3l-.13-.17v-.09h-.09v-.09l-.17-.13v-.25a2.09 2.09 0 00-.1-.27.92.92 0 01-.09-.38 1 1 0 010-.17c.07-.54.11-1 .12-1.34V49.54a2.31 2.31 0 000-.39h.09v-.54l.3-.26.09-.43.09-.13h.3v-.09a1 1 0 01.65-.3l.77-.13a1.69 1.69 0 01.52.13 1.49 1.49 0 01.14.53.81.81 0 010 .16l-.3.17h-.42a1.39 1.39 0 00-.74.22v.09l-.18.13v.08l-.15.34a.43.43 0 01-.28.22v.09H98.4v.09h-.09v.13a.38.38 0 000 .1.42.42 0 00.1.33h.21l.26-.39H99.58a.41.41 0 01.16 0v.09h.09v.09h.39l.34.43.22.05h.09v.09l.21.21V51.21h.08v.09a.49.49 0 010 .17zm-.67-.13a1 1 0 00-.15-.46.61.61 0 00-.34-.31h-.39v-.08h-.83l-.13.17H98.57l-.05.08h-.08v.09h-.09l-.23.08a.26.26 0 00-.16.18.38.38 0 00-.09.28v.41L98 52a.5.5 0 00.19.13v.08l.18.13h.08v.08l.26.09.13.09.09.21h.26a.4.4 0 01.34-.17h.2l.12-.17a.25.25 0 01.13 0c.32 0 .48-.15.48-.46v-.43a.51.51 0 00.16-.13zm-2 0a.38.38 0 01.17-.06 1.26 1.26 0 01.09.21v.09h-.26l-.09-.13a.56.56 0 00.05-.13zm1.25 0a.36.36 0 00.08.13v.17h-.56l-.13-.21c0-.06 0-.1.06-.1h.07a.76.76 0 01.21 0zM107.8 50.3a1.6 1.6 0 000 .29l-.3.13a1.13 1.13 0 01-.13.43V51.75h-.09V52l-.22.17v.09h-.17l-.09.13H106.63l-.09.09h-.08l-.17.21-.18.09a3.31 3.31 0 01-.6-.09v-.08a.86.86 0 01-.26-.17h-.17v-.09H105l-.17-.13v-.09l-.13-.08V52h-.09v-.09l-.3-.26v-.15l-.09-.91v-.08h-.09v-.08l-.08-.05v-.08H104a.44.44 0 010-.1.37.37 0 01.09-.2.4.4 0 00.08-.2.52.52 0 000-.11v-.17h-.05v-.82h.05v-.08h.08v-.09h.09v-.91l.26-.21v-.09l.47-.43h.52l.08-.13h.25a.45.45 0 01.17.05.26.26 0 00.14 0 .32.32 0 00.16 0l.15-.05a.17.17 0 01.12.05 1.66 1.66 0 01.43.3v.09l.43.38.05.26v.09l.13.08v1.12l.3.22v.26a.49.49 0 00-.08.26v.64a.38.38 0 01-.12-.21zm-.64-.39a.23.23 0 00.16-.18l-.13-.09-.17-.11v-.19a.26.26 0 00.1-.21.62.62 0 00-.1-.3 1.26 1.26 0 01-.13-.22v-.22l-.17-.13V47.96h-.09v-.22l-.13-.08v-.13h-.35v-.08a.65.65 0 00-.43-.17l-.43.38c0 .09-.07.16-.09.22h-.08v.08l-.21.18v.77a1 1 0 00-.08.39l.21.26-.06.11a1.16 1.16 0 00-.13.29V50l.12.1a.36.36 0 01.06.2.34.34 0 00-.18.3l.09.08.26.09V50.94l.13.09h.09l.13.08V51.44c0 .04 0 .08.13.1h.18v.05h.1a.87.87 0 00.33-.14H106v-.09H106.34v-.09l.18-.13.08-.26v-.17a.66.66 0 010-.15v-.41c.05 0 .08-.06.09-.08h.09v-.09zM114.05 51.58l-.17.43v.35h-.08v.09l-.13.08-.22.3-.45.17h-.09v.08H111.74v-.09H111.14v-.05h-.3l-.13-.17v-.09h-.09v-.09l-.17-.13v-.25a2.09 2.09 0 00-.1-.27.92.92 0 01-.09-.38 1 1 0 010-.17c.07-.54.11-1 .12-1.34V49.58a2.31 2.31 0 000-.39h.09v-.58l.3-.26.09-.43.09-.13h.3v-.09a1 1 0 01.65-.3l.77-.13a1.69 1.69 0 01.52.13 1.49 1.49 0 01.14.53.81.81 0 010 .16l-.3.17h-.59a1.39 1.39 0 00-.74.22v.09l-.18.13v.08l-.15.34a.43.43 0 01-.28.22v.09H110.92v.09h-.09v.13a.38.38 0 000 .1.42.42 0 00.1.33h.21l.26-.39h.74a.41.41 0 01.16 0v.09h.09v.09h.39l.34.43.22.05h.09v.09l.21.21V51.21h.08v.09a.49.49 0 010 .17zm-.67-.13a1 1 0 00-.15-.46.61.61 0 00-.34-.31h-.39v-.08h-.82l-.13.17H111.34v.08h-.08v.09H111l-.23.08a.26.26 0 00-.16.18.38.38 0 00-.09.28v.41l.15.13a.5.5 0 00.19.13v.08l.18.13h.08v.08l.26.09.13.09.09.21h.4a.4.4 0 01.34-.17h.2l.12-.17a.25.25 0 01.13 0c.32 0 .48-.15.48-.46v-.45a.51.51 0 00.11-.13zm-2 0a.38.38 0 01.17-.06 1.26 1.26 0 01.09.21v.09h-.26l-.09-.13a.56.56 0 00.05-.13zm1.25 0a.36.36 0 00.08.13v.17h-.56l-.13-.21c0-.06 0-.1.06-.1h.07a.76.76 0 01.21 0zM120.56 50.3a1.6 1.6 0 000 .29l-.3.13a1.13 1.13 0 01-.13.43V51.75h-.09V52l-.22.17v.09h-.17l-.09.13H119.39l-.09.09h-.3l-.17.21-.18.09a3.31 3.31 0 01-.6-.09v-.08a.86.86 0 01-.26-.17h-.17l-.05-.09h-.08l-.17-.13v-.09l-.13-.08V52h-.09v-.09l-.3-.26v-.15l-.09-.91v-.08h-.09v-.08l-.08-.05v-.08a.44.44 0 010-.1.43.43 0 01.08-.2.35.35 0 00.09-.2.52.52 0 000-.11v-1.07h.08v-.09h.09V47.84l.05-.22.26-.21v-.09l.47-.43h.52l.08-.13h.25a.45.45 0 01.17.05.26.26 0 00.14 0 .32.32 0 00.16 0 .5.5 0 01.15-.05.17.17 0 01.12.05 1.66 1.66 0 01.43.3v.09l.43.38v.35l.13.08v1.12l.3.22v.26a.49.49 0 00-.08.26v.64a.38.38 0 01.1-.21zm-.64-.39a.23.23 0 00.16-.18l-.13-.09-.17-.11v-.19a.26.26 0 00.1-.21.62.62 0 00-.1-.3 1.26 1.26 0 01-.13-.22v-.22l-.17-.13V47.96h-.09v-.22l-.13-.08v-.13h-.35v-.08a.65.65 0 00-.43-.17l-.43.38c0 .09-.07.16-.09.22h-.08l-.05.08-.21.18v.77a1 1 0 00-.08.39l.21.26-.06.11a1.16 1.16 0 00-.13.29V50l.12.1a.36.36 0 01.06.2.34.34 0 00-.18.3l.09.08.26.09V50.94l.13.09h.09l.13.08V51.44c0 .04 0 .08.13.1h.18v.05h.1a.87.87 0 00.33-.14h.08l.05-.09H119.47v-.09l.18-.13.08-.26v-.17a.66.66 0 010-.15v-.41s.08-.06.09-.08h.09v-.09zM126.49 52.4v.09h-.09a1.2 1.2 0 01-.52.43h-.08V53h-.08v.09H125l-.26-.09h-.51v-.05h-.53v-.09h-.09v-.08a1.38 1.38 0 01-.47-.51 1.23 1.23 0 01-.22-.65.87.87 0 01.39-.18l.3.26v.35l.34.38h.78v.09h.09l.06.16s.08.05.2.06l.08-.13v-.09l.17-.34h.44s.05-.05.08-.13a.36.36 0 00.13-.31 1.23 1.23 0 00-.22-.64h-.09a.27.27 0 010-.12.36.36 0 010-.11.74.74 0 000-.12.31.31 0 000-.08v-.09l-.2-.17a.37.37 0 00-.24-.1.67.67 0 00-.27.08.57.57 0 01-.25.08 1 1 0 01-.33-.11.94.94 0 010-.34.25.25 0 00.08-.17c.21-.11.29-.17.26-.17h.78l.25-.39h.32c.1 0 .15-.05.15-.17a.88.88 0 00-.07-.31q-.08-.23-.09-.3l-.13-.08v-.05h-.43v-.05h-.61a.18.18 0 01-.11 0 .54.54 0 01-.27-.06l-.26.09a1.37 1.37 0 01-.17.64l-.13.09v.08l-.21.26h-.39a.82.82 0 01-.13-.43c.21-.12.31-.43.3-.91l.09-.12h.73v-.08h.48v-.09h.6l.18.22h.68l.09.12v.22V48h.09v1.09a.4.4 0 010 .25.18.18 0 01-.08.15l-.14.07a.69.69 0 01-.13.17.67.67 0 00.31.6v.18a5.22 5.22 0 000 .59v.58a2.41 2.41 0 01-.15.68zM57.05 35.06h.37a2.51 2.51 0 00.35 0 .3.3 0 01.18 0 .38.38 0 01.2.16 1.1 1.1 0 01.1.53V37a.13.13 0 000 .06.27.27 0 00.07.18.59.59 0 01.07.1v.22l-.14.08h-.08v.22a.42.42 0 01.2.37.33.33 0 010 .15v.08h-.09l-.12.64v.13h.09v.09l.13.09v.17a.59.59 0 010 .13 1 1 0 010 .22 1.26 1.26 0 000 .21 1 1 0 000 .15 1 1 0 010 .15.17.17 0 010 .13.19.19 0 01-.09.15l-.15.06v.05H57.92a.59.59 0 01-.31-.13c-.13-.08-.19-.17-.19-.25a.49.49 0 01.06-.19.74.74 0 00.08-.16l-.34-.13v-.69a.36.36 0 00.14-.26.8.8 0 000-.21.69.69 0 010-.22 1.11 1.11 0 010-.17h.06v-.77h-.06v-.18h.05a.19.19 0 000-.08.82.82 0 000-.18.82.82 0 010-.18 1.88 1.88 0 01.06-.38 1.69 1.69 0 00.06-.38.79.79 0 00-.37-.13h-.39a1.19 1.19 0 01-.4-.1q-.28-.1-.33-.21v-.09h-.24a.54.54 0 01.06-.25V35.32l.05-.26.13-.09H56.48a.62.62 0 00.57.09zM63.94 36.1a.45.45 0 01.35-.39v-.13H64.07v.21H63.65a.29.29 0 00-.18.07v.13H63s-.08 0-.12-.09a.62.62 0 00-.08-.1h-.13a1.28 1.28 0 00-.34 0v.13h-.05V36a.58.58 0 000 .1.44.44 0 000 .1.51.51 0 010 .09.29.29 0 010 .09v.09a1.75 1.75 0 01-.52.26l-.08-.05v-.12l-.13-.09v-1.33h.08V35l.39-.35h.21a.72.72 0 00.52-.07.89.89 0 01.31-.1h.12l.26.08h1.86a.08.08 0 00.08 0 1.47 1.47 0 01.13.43v.22l-.47.43v.64l-.17.13v.09l-.13.09V37l-.3.26v.09h-.05V38h-.05v2l-.13.56a.8.8 0 01-.3 0h-.09a1.26 1.26 0 01-.17-.43V38.14h.05v-1.43h.05v-.39a2.47 2.47 0 01.19-.22zM20.24 47.49a.38.38 0 01.13.08v.09a.77.77 0 01.35.69s-.07.13-.26.3v.09h-.05l-.08.13h-.16l-.25-.69h-.35a.76.76 0 00-.13-.13.94.94 0 000-.3l-.09-.13h-.09a.39.39 0 01-.17-.09h-.55a.32.32 0 01-.13.13v.17a1 1 0 000 .22c0 .07-.08.17-.25.3V48.99h-.09l-.13.08v.09l-.05.73a3.06 3.06 0 00.31.3.58.58 0 01-.08.12v.05h-.55v.09h-.05v.08l.48.43v.09h.08v.09h.09l.13.17h.17v.08a.77.77 0 00.19.16.44.44 0 00.25.06.22.22 0 01.08-.09v-.34h.09v.22l.05.05h.1l.29-.06c0-.14.09-.28.15-.44a.31.31 0 01.31-.23h.23l.17.34v.43a.11.11 0 01.05.09h-.05v.13l-.08.05-.05.25-.55.52h-.35l-.28.21a.56.56 0 01-.33.12.45.45 0 01-.16 0h-.13l-.09-.13h-.09v-.08l-.6-.13-.22-.26h-.08l-.09-.13H17.11V52l-.17-.39H17a.74.74 0 00-.08-.16.37.37 0 01-.07-.2.43.43 0 010-.11h.05l.1-.34-.07-.31a1.33 1.33 0 010-.32.58.58 0 010-.19v-.3h.05a.3.3 0 000-.1.49.49 0 00-.07-.23l.09-.14v-.95a.3.3 0 000-.1.67.67 0 000-.16.59.59 0 01-.05-.19.68.68 0 01.22-.43l.35-.38a2.27 2.27 0 011.24-.28H19.66v.09h.09l.17.13v.09a2 2 0 01.32.46zM19.12 51l-.43-.13a1.94 1.94 0 010-.35h.22c.09.13.14.29.21.48zm.9.64h-.13v-.17zM26.6 46.84l.43.09a.36.36 0 00.09.13l-.09.38a3.5 3.5 0 01.2.7 1.08 1.08 0 01-.06.28 1.23 1.23 0 00-.06.32.81.81 0 000 .19.5.5 0 010 .16.19.19 0 010 .08 1.41 1.41 0 00-.13.44v.07l.09.26-.05.35a1.18 1.18 0 00.12.29v.05h-.05a1.37 1.37 0 00-.19.43l.12.09.16.09a.3.3 0 01.06.17.41.41 0 00-.1.31.5.5 0 000 .12.2.2 0 010 .07c0-.06 0 0-.05.23l-.3.23a.6.6 0 01-.39.11l-.13-.13v-.34l-.09-.14a.4.4 0 01-.09-.23.13.13 0 010-.06v-.13h.08V51.28a.61.61 0 000-.15 1.19 1.19 0 00-.1-.41.11.11 0 010-.07.38.38 0 01.06-.18.42.42 0 00.08-.14v-.22h-.09v-.09h.18v-.12a1.09 1.09 0 00-.11-.16l-.2-.1h-.08l-.12.17c0 .05-.1.08-.23.08a.71.71 0 00-.62-.23.76.76 0 00-.32.06l-.39.12h-.13v-.13a.68.68 0 00-.18-.13V50a.28.28 0 01.14.24.29.29 0 010 .09v.17l.18.37H24l-.09.47v.13H24v.31l.06.12h.09v.05a1.26 1.26 0 01-.12.29c-.06.14-.11.21-.15.23h-.43l-.31-.22v-.57a2.28 2.28 0 01.07-.47 2.79 2.79 0 00.06-.48 1.24 1.24 0 00-.06-.31.88.88 0 01-.07-.31.78.78 0 010-.14v-.36l-.09-.24v-.17H23a.3.3 0 010-.1.57.57 0 01.06-.21.57.57 0 00.06-.21 1.27 1.27 0 00-.06-.3 1.1 1.1 0 01-.06-.31 1.76 1.76 0 01.08-.39 2.45 2.45 0 00.08-.42.81.81 0 00.19-.24.47.47 0 01.24-.19h.06a.76.76 0 01.29.1v.31a2.91 2.91 0 000 .59.85.85 0 00.06.31.73.73 0 01.06.22.46.46 0 01-.08.23.52.52 0 00-.11.24l.1.08V49h.12v.05H24.26l.05.09H24.52a1.36 1.36 0 00.5.07 1.09 1.09 0 00.28 0 .66.66 0 01.22.06.55.55 0 00.22.05 2.74 2.74 0 01.43-.11l.21-.26v-.16a1.42 1.42 0 000-.19.88.88 0 000-.21v-.47h-.08V48h-.05v-.12a.38.38 0 010-.1.35.35 0 01.07-.2.87.87 0 00.07-.17v-.33l.17-.13h.13zM31.22 46.5h.43q0 .18.06.21l.15.13h.05v.43a2.13 2.13 0 000 .3 1.76 1.76 0 010 .31v.17a.05.05 0 000 .06v.18H32a.28.28 0 010 .09l-.1.29v1.55a1 1 0 00.05.35h.07v.09h.1v.09a.31.31 0 01-.06.32.43.43 0 00-.08.2.19.19 0 000 .08v.17a.58.58 0 010 .21 3.42 3.42 0 01-.07.61l-.12.08H32l-.08.13h-.09v.08h-.43l-.05-.13h-.08v-.09l-.13-.09-.14-.18v-.09a.25.25 0 010-.1.94.94 0 01.15-.5l.08-.05V50.54h-.08l-.15-.21h-.08v-.22h-.05a.28.28 0 010-.1 1.58 1.58 0 01.05-.29 1.33 1.33 0 00.05-.3v-.86a.07.07 0 000-.06v-.6l-.09-.51h.05v-.13l.09-.26c.08-.1.14-.24.2-.5zM38.64 50.67c.15.26.26.44.34.56v1.25l-.26.21v.09h-.08v.09l-.13.08v.09l-.13.08v.09l-.13.09a.89.89 0 01-.44.08 2 2 0 01-.42 0l-.13-.17v-.43a.52.52 0 00.3-.39.34.34 0 01-.09-.17l-.13-.09v-.21L37 51.7v-.77a1.45 1.45 0 00.3-.22h.08v-.09a2.08 2.08 0 01.67-.06h.23zm-.26.69h-.22a.68.68 0 000 .26h.26zM50.36 46.5h.43q0 .18.06.21l.15.13v.43a2.13 2.13 0 000 .3 1.76 1.76 0 010 .31v.17a.05.05 0 000 .06v.18a.28.28 0 010 .09l-.1.29v1.55a1 1 0 000 .35h.07v.09h.1v.09a.31.31 0 01-.06.32.43.43 0 00-.08.2.19.19 0 000 .08l.05.17a.58.58 0 010 .21 3.42 3.42 0 01-.07.61l-.12.08h-.09l-.08.13H51v.08h-.43l-.05-.13h-.08v-.09l-.13-.09-.09-.25v-.09a.25.25 0 010-.1.94.94 0 01.15-.5l.08-.05V50.47h-.08v-.17h-.08v-.22H50a.28.28 0 010-.1 1.58 1.58 0 010-.29 1.33 1.33 0 00.05-.3v-.86a.07.07 0 000-.06v-.6l-.05-.55h.05v-.13l.09-.26c.1-.03.16-.17.22-.43zM56.25 46.93a1 1 0 000 .18.27.27 0 010 .12l-.13.09v.3a.2.2 0 000 .07.17.17 0 00.1.14v.86l.09.05v.08a.25.25 0 010 .08s0 .09-.1.14v.43h.13v.09h-.08l-.05.43v.17l.06.26H56v.65l.14.08-.09.52h.13c.05-.06.09-.1.14-.1h.13a.2.2 0 00.14 0h.11v.09a1.27 1.27 0 00.43-.06h.09v-.07h.43c.06.11.13.16.2.16h.18a.76.76 0 01.21 0H58.55v.15h.17L59 52a1.66 1.66 0 00-.08.56h-.22a.56.56 0 01-.17.22V53h-.47a2.16 2.16 0 00.08-.26h-.34v.1H57.68v.05h-.31s0-.07-.06-.07l-.13-.21a2.7 2.7 0 01-.56.23.59.59 0 01-.22-.05H55.55a.85.85 0 000-.22v-.3h-.25a.79.79 0 01.05-.1.27.27 0 000-.13.17.17 0 000-.07h-.07a.39.39 0 010-.13s0-.11.05-.39h-.03a.93.93 0 01-.08-.17h.13l-.05-.22h-.09v-.1h.31V50.58 50.79h-.17a.68.68 0 010-.26.38.38 0 00.17-.27.08.08 0 01-.05-.08h.05l.08-.39a.34.34 0 00-.09.17V49.75h.08v-.22h-.08v-.26c0-.12.08-.25.13-.39v-.08l-.29-.8h-.13a.42.42 0 010-.18h.13v-.42h-.09v-.13l-.09-.17v-.09a.24.24 0 00.17 0c0-.19.07-.31.22-.35h.34v.05h.09l.08.13h.05v.13h-.09zM64.74 51.4v.09l-.35.3v.08h-.08q-.08.27-.48.27h-.21a.57.57 0 01-.36.07.32.32 0 01-.16 0H62.89L62.8 52h-.08v-.09l-.17-.13a2.51 2.51 0 00-.18-.42 1.07 1.07 0 01-.12-.48.71.71 0 00.09-.17v-.09h.08v-.09h.05v-.08a.59.59 0 00.13-.22 2.14 2.14 0 00.39-.21h.86L64 50l.28.15a.61.61 0 01.24.2V50.78a1.65 1.65 0 01.22.62zm-1.29 0a.35.35 0 000 .17.59.59 0 01-.22-.09l.05-.21h.12zm0 0l-.05-.13h-.12l-.05.21a.5.5 0 00.22.09.35.35 0 01.04-.21zm.09-.52a.4.4 0 01-.13-.17h-.17v.21l.21.13zm.51.17a.59.59 0 00-.25-.08.51.51 0 010 .09V51.23h.26a.35.35 0 00.03-.23z"></path></g></g></svg>